<?xml version="1.0" encoding="UTF-8" standalone="no"?>
<svg
   width="24"
   height="24"
   viewBox="0 0 24 24"
   fill="none"
   stroke="currentColor"
   version="1.1"
   id="svg20"
   xmlns="http://www.w3.org/2000/svg">
  <defs
     id="defs24" />
  <path
     id="path14"
     style="fill:none"
     d="M 20.256094 16.144824 C 20.574684 15.238424 20.75 14.264866 20.75 13.25 C 20.75 8.4200096 16.82999 4.5 12 4.5 L 12 4.5 C 7.1700096 4.5 3.25 8.4200096 3.25 13.25 C 3.25 14.297277 3.4362522 15.300479 3.7745444 16.231251 " />
  <path
     d="M12 8V13"
     stroke="currentColor"
     strokeWidth="1.5"
     strokeLinecap="round"
     strokeLinejoin="round"
     id="path16" />
  <path
     d="M9 2H15"
     stroke="currentColor"
     strokeWidth="1.5"
     strokeMiterlimit="10"
     strokeLinecap="round"
     strokeLinejoin="round"
     id="path18" />
  <g
     ariaLabel="30 min"
     id="text244"
     style="font-size:8px;fill:#000000;stroke-width:0.5">
    <path
       d="m 4.1664217,18.366327 q 0,0.546875 -0.3085938,0.898438 -0.3046875,0.351562 -0.875,0.46875 v 0.03125 q 0.6835938,0.08594 1.0195313,0.4375 0.3398437,0.351562 0.3398437,0.914062 0,0.816407 -0.5664062,1.261719 -0.5664063,0.441406 -1.625,0.441406 -0.453125,0 -0.8359375,-0.06641 -0.3789063,-0.06641 -0.73437505,-0.242187 v -0.65625 q 0.36328125,0.179687 0.77734375,0.277343 0.4140625,0.09766 0.8007813,0.09766 1.4453125,0 1.4453125,-1.128907 0,-1.007812 -1.5976563,-1.007812 H 1.4515779 v -0.597656 h 0.5625 q 0.671875,0 1.0507813,-0.285157 0.3789062,-0.289062 0.3789062,-0.796875 0,-0.410156 -0.2773437,-0.640625 -0.2734375,-0.230468 -0.7617188,-0.230468 -0.3789062,0 -0.703125,0.105468 -0.3203125,0.101563 -0.7382812,0.375 L 0.61173415,17.542109 q 0.35156255,-0.277344 0.80859375,-0.433594 0.4609375,-0.160156 0.9765625,-0.160156 0.8359375,0 1.3007813,0.382812 0.46875,0.378906 0.46875,1.035156 z"
       id="path671" />
    <path
       d="m 8.9789217,19.878046 q 0,1.488281 -0.4726563,2.214844 -0.46875,0.726562 -1.4296875,0.726562 -0.9296875,0 -1.4101562,-0.746093 -0.4804688,-0.75 -0.4804688,-2.195313 0,-1.492187 0.4609375,-2.214844 0.4648438,-0.722656 1.4296875,-0.722656 0.9296875,0 1.4140625,0.75 0.4882813,0.75 0.4882813,2.1875 z m -3.0859375,0 q 0,1.242188 0.28125,1.792969 0.2851562,0.550781 0.9023437,0.550781 0.625,0 0.90625,-0.5625 0.2851563,-0.566406 0.2851563,-1.78125 0,-1.203125 -0.2851563,-1.769531 -0.28125,-0.566406 -0.90625,-0.566406 -0.625,0 -0.90625,0.554687 -0.2773437,0.554688 -0.2773437,1.78125 z"
       id="path673" />
    <path
       d="m 15.70939,22.772577 v -2.761718 q 0,-1.015625 -0.871093,-1.015625 -0.597657,0 -0.878907,0.347656 -0.28125,0.347656 -0.28125,1.0625 v 2.367187 h -0.699218 v -2.761718 q 0,-0.507813 -0.214844,-0.761719 -0.210938,-0.253906 -0.664063,-0.253906 -0.59375,0 -0.871093,0.363281 -0.273438,0.363281 -0.273438,1.191406 v 2.222656 h -0.703125 v -4.289062 h 0.566406 l 0.105469,0.585937 h 0.03906 q 0.183593,-0.3125 0.515625,-0.488281 0.335937,-0.175781 0.75,-0.175781 1.007812,0 1.3125,0.71875 h 0.03906 q 0.207031,-0.34375 0.5625,-0.53125 0.359375,-0.1875 0.8125,-0.1875 0.726563,0 1.085938,0.375 0.363281,0.375 0.363281,1.199219 v 2.792968 z"
       id="path675" />
    <path
       d="m 18.435953,22.772577 h -0.703125 v -4.289062 h 0.703125 z M 17.67814,17.323359 q 0,-0.234375 0.117188,-0.339844 0.121094,-0.105469 0.296875,-0.105469 0.164062,0 0.285156,0.105469 0.125,0.105469 0.125,0.339844 0,0.230468 -0.125,0.339843 -0.121094,0.109375 -0.285156,0.109375 -0.175781,0 -0.296875,-0.109375 -0.117188,-0.109375 -0.117188,-0.339843 z"
       id="path677" />
    <path
       d="M 22.717203,22.772577 V 20.03039 q 0,-0.523438 -0.234375,-0.777344 -0.230469,-0.257812 -0.726563,-0.257812 -0.660156,0 -0.960937,0.367187 -0.296875,0.363281 -0.296875,1.1875 v 2.222656 h -0.703125 v -4.289062 h 0.566406 l 0.105469,0.585937 h 0.03906 q 0.199219,-0.316406 0.558594,-0.488281 0.359375,-0.175781 0.792969,-0.175781 0.789062,0 1.171875,0.382812 0.382812,0.382813 0.382812,1.191407 v 2.792968 z"
       id="path679" />
  </g>
</svg>
